<svg width="1200" height="640" viewBox="0 0 1200 640" fill="none" xmlns="http://www.w3.org/2000/svg">
  <rect width="1200" height="640" rx="42" fill="#111827"/>
  <rect x="80" y="72" width="1040" height="496" rx="44" fill="#17152A"/>
  <rect x="80.75" y="72.75" width="1038.5" height="494.5" rx="43.25" stroke="#A78BFA" stroke-opacity="0.35" stroke-width="1.5"/>

  <g filter="url(#shadow)">
    <rect x="168" y="128" width="864" height="384" rx="32" fill="#151322"/>
    <rect x="168.5" y="128.5" width="863" height="383" rx="31.5" stroke="#FFFFFF" stroke-opacity="0.08"/>
  </g>

  <text x="218" y="202" fill="#FFFFFF" font-family="-apple-system,BlinkMacSystemFont,Segoe UI,sans-serif" font-size="42" font-weight="800">Sundown</text>
  <text x="218" y="240" fill="#A1A1AA" font-family="-apple-system,BlinkMacSystemFont,Segoe UI,sans-serif" font-size="25" font-weight="600">Bucharest</text>
  <text x="927" y="207" fill="#FFFFFF" font-family="SF Mono,Menlo,monospace" font-size="44" font-weight="800" text-anchor="end">4h40m</text>

  <rect x="218" y="286" width="764" height="18" rx="9" fill="#2E2A3D"/>
  <rect x="218" y="286" width="492" height="18" rx="9" fill="#FF9F2F"/>

  <g transform="translate(220 350)">
    <path d="M22 18C22 7.5 30.5 0 41 0C51.5 0 60 7.5 60 18" stroke="#FF9F2F" stroke-width="5" stroke-linecap="round"/>
    <path d="M14 25H68" stroke="#FF9F2F" stroke-width="5" stroke-linecap="round"/>
    <path d="M41 -15V-5M13 0L20 7M69 0L62 7M5 20H-6M88 20H77" stroke="#FF9F2F" stroke-width="4" stroke-linecap="round"/>
    <text x="96" y="13" fill="#A1A1AA" font-family="-apple-system,BlinkMacSystemFont,Segoe UI,sans-serif" font-size="25" font-weight="800">Sunrise</text>
    <text x="96" y="54" fill="#FFFFFF" font-family="SF Mono,Menlo,monospace" font-size="31" font-weight="800">05:33</text>
  </g>

  <g transform="translate(730 350)">
    <path d="M22 18C22 7.5 30.5 0 41 0C51.5 0 60 7.5 60 18" stroke="#FF9F2F" stroke-width="5" stroke-linecap="round"/>
    <path d="M14 25H68" stroke="#FF9F2F" stroke-width="5" stroke-linecap="round"/>
    <path d="M41 -15V-5M13 0L20 7M69 0L62 7M5 20H-6M88 20H77" stroke="#FF9F2F" stroke-width="4" stroke-linecap="round"/>
    <text x="96" y="13" fill="#A1A1AA" font-family="-apple-system,BlinkMacSystemFont,Segoe UI,sans-serif" font-size="25" font-weight="800">Sunset</text>
    <text x="96" y="54" fill="#FFFFFF" font-family="SF Mono,Menlo,monospace" font-size="31" font-weight="800">21:04</text>
  </g>

  <text x="218" y="454" fill="#FFFFFF" font-family="-apple-system,BlinkMacSystemFont,Segoe UI,sans-serif" font-size="29" font-weight="750">Half the daylight is already gone.</text>
  <text x="218" y="492" fill="#A1A1AA" font-family="-apple-system,BlinkMacSystemFont,Segoe UI,sans-serif" font-size="22" font-weight="650">A brutally honest menu bar app for macOS.</text>

  <g transform="translate(106 105)">
    <rect width="204" height="62" rx="31" fill="#4F46E5"/>
    <circle cx="47" cy="31" r="15" fill="#FDBA2D"/>
    <path d="M47 5V15M47 47V57M21 31H31M63 31H73M29 13L36 20M58 42L65 49M65 13L58 20M36 42L29 49" stroke="#FDBA2D" stroke-width="4" stroke-linecap="round"/>
    <text x="78" y="42" fill="#FFFFFF" font-family="SF Mono,Menlo,monospace" font-size="30" font-weight="800">4h40m</text>
  </g>

  <defs>
    <filter id="shadow" x="128" y="96" width="944" height="464" filterUnits="userSpaceOnUse" color-interpolation-filters="sRGB">
      <feDropShadow dx="0" dy="18" stdDeviation="20" flood-color="#000000" flood-opacity="0.32"/>
    </filter>
  </defs>
</svg>
